# WaveFront *.obj file (generated by Autodesk ATF)

mtllib RAILS_SUPPORT.mtl

g Body1

v -50.048804 -28.534055 10.000000
v -52.374806 -28.534055 10.000000
v -52.374806 -28.534055 -0.000000
v -50.048804 -28.534055 -0.000000
v -56.036811 -24.872055 10.000000
v -56.036811 -24.872055 -0.000000
v -50.048804 0.605946 10.000000
v -50.048804 0.605946 -0.000000
v -56.036811 4.899946 10.000000
v -47.331805 13.604945 10.000000
v -47.331805 13.604945 -0.000000
v -56.036811 4.899946 -0.000000
v -22.732720 13.604945 10.000000
v -22.732720 13.604945 -0.000000
v -14.036806 4.909851 10.000000
v -14.036806 4.909851 -0.000000
v -14.036806 -24.881961 10.000000
v -14.036806 -24.881961 -0.000000
v -42.374110 0.605946 -0.000000
v -17.689244 -28.534055 -0.000000
v -20.043805 -28.534055 -0.000000
v -20.043805 0.605946 -0.000000
v -27.651501 0.605946 -0.000000
v -29.035804 1.990383 -0.000000
v -29.035804 8.606946 -0.000000
v -41.037807 8.606946 -0.000000
v -41.037807 1.942378 -0.000000
v -17.689244 -28.534055 10.000000
v -42.374110 0.605946 10.000000
v -41.037807 1.942378 10.000000
v -41.037807 8.606946 10.000000
v -29.035804 8.606946 10.000000
v -29.035804 1.990383 10.000000
v -27.651501 0.605946 10.000000
v -20.043805 0.605946 10.000000
v -20.043805 -28.534055 10.000000
vt 2.500000 0.000000 0.000000
vt 3.500000 0.000000 0.000000
vt 2.500000 0.232600 0.000000
vt 3.500000 0.232600 0.000000
vt 1.000000 0.517885 0.000000
vt 0.000000 0.517885 0.000000
vt 1.000000 0.000000 0.000000
vt 0.000000 0.000000 0.000000
vt 0.751000 -1.680400 0.000000
vt 1.751000 -1.680400 0.000000
vt 0.751000 1.233600 0.000000
vt 1.751000 1.233600 0.000000
vt 1.000000 0.000000 0.000000
vt 0.000000 0.000000 0.000000
vt 1.000000 -1.231073 0.000000
vt 0.000000 -1.231073 0.000000
vt -2.500000 2.459908 0.000000
vt -3.500000 2.459908 0.000000
vt -2.500000 0.000000 0.000000
vt -3.500000 0.000000 0.000000
vt -1.000000 0.000000 0.000000
vt 0.000000 0.000000 0.000000
vt -1.000000 1.229730 0.000000
vt 0.000000 1.229730 0.000000
vt 2.500000 0.000000 0.000000
vt 3.500000 0.000000 0.000000
vt 2.500000 2.979181 0.000000
vt 3.500000 2.979181 0.000000
vt 0.000000 0.000000 0.000000
vt 0.133630 -0.133643 0.000000
vt 0.000000 0.666457 0.000000
vt 0.901100 -0.133643 0.000000
vt 0.629400 1.166257 0.000000
vt 1.499900 0.295757 0.000000
vt 1.499900 -2.681443 0.000000
vt 0.901100 -3.047643 0.000000
vt 1.133700 -3.047643 0.000000
vt -1.200200 0.666457 0.000000
vt -1.830509 1.166257 0.000000
vt -2.099400 -0.133643 0.000000
vt -2.700100 0.296747 0.000000
vt -2.700100 -2.682434 0.000000
vt -2.334856 -3.047643 0.000000
vt -2.099400 -3.047643 0.000000
vt -1.338631 -0.133643 0.000000
vt -1.200200 0.004800 0.000000
vt -0.751000 2.463500 0.000000
vt -1.751000 2.463500 0.000000
vt -0.751000 -0.513700 0.000000
vt -1.751000 -0.513700 0.000000
vt -1.000000 -0.516508 0.000000
vt -0.000000 -0.516508 0.000000
vt -1.000000 0.000000 0.000000
vt 0.000000 0.000000 0.000000
vt 2.500000 -0.767469 0.000000
vt 3.500000 -0.767469 0.000000
vt 2.500000 0.000000 0.000000
vt 3.500000 0.000000 0.000000
vt 2.500000 -0.188991 0.000000
vt 3.500000 -0.188991 0.000000
vt 2.500000 0.000000 0.000000
vt 3.500000 0.000000 0.000000
vt -1.000000 0.000000 0.000000
vt 0.000000 0.000000 0.000000
vt -1.000000 0.666457 0.000000
vt 0.000000 0.666457 0.000000
vt 2.500000 0.000000 0.000000
vt 3.500000 0.000000 0.000000
vt 2.500000 1.200200 0.000000
vt 3.500000 1.200200 0.000000
vt 1.000000 0.661656 0.000000
vt 0.000000 0.661656 0.000000
vt 1.000000 0.000000 0.000000
vt 0.000000 0.000000 0.000000
vt -2.500000 0.195780 0.000000
vt -3.500000 0.195780 0.000000
vt -2.500000 0.000000 0.000000
vt -3.500000 0.000000 0.000000
vt 2.500000 0.000000 0.000000
vt 3.500000 0.000000 0.000000
vt 2.500000 0.760770 0.000000
vt 3.500000 0.760770 0.000000
vt -2.500000 0.000000 0.000000
vt -3.500000 0.000000 0.000000
vt -2.500000 -2.914000 0.000000
vt -3.500000 -2.914000 0.000000
vt 2.500000 0.000000 0.000000
vt 3.500000 0.000000 0.000000
vt 2.500000 0.235456 0.000000
vt 3.500000 0.235456 0.000000
vt -0.733730 0.807050 0.000000
vt -0.600100 1.607150 0.000000
vt -1.501200 0.807050 0.000000
vt -1.229500 2.106950 0.000000
vt -2.100000 1.236450 0.000000
vt -0.600100 0.940693 0.000000
vt 0.600100 1.607150 0.000000
vt 1.230409 2.106950 0.000000
vt 1.499300 0.807050 0.000000
vt 2.100000 1.237441 0.000000
vt 2.100000 -1.741741 0.000000
vt 1.499300 -2.106950 0.000000
vt 1.734756 -2.106950 0.000000
vt 0.600100 0.945494 0.000000
vt 0.738531 0.807050 0.000000
vt -2.100000 -1.740750 0.000000
vt -1.501200 -2.106950 0.000000
vt -1.733800 -2.106950 0.000000
vn 0.000000 -0.100000 0.000000
vn 0.000000 -0.100000 0.000000
vn 0.000000 -0.100000 0.000000
vn 0.000000 -0.100000 0.000000
vn -0.070711 -0.070711 0.000000
vn -0.070711 -0.070711 0.000000
vn -0.070711 -0.070711 0.000000
vn -0.070711 -0.070711 0.000000
vn 0.100000 0.000000 0.000000
vn 0.100000 0.000000 0.000000
vn 0.100000 0.000000 0.000000
vn 0.100000 0.000000 0.000000
vn -0.070711 0.070711 0.000000
vn -0.070711 0.070711 0.000000
vn -0.070711 0.070711 0.000000
vn -0.070711 0.070711 0.000000
vn 0.000000 0.100000 0.000000
vn 0.000000 0.100000 0.000000
vn 0.000000 0.100000 0.000000
vn 0.000000 0.100000 0.000000
vn 0.070707 0.070714 0.000000
vn 0.070707 0.070714 0.000000
vn 0.070707 0.070714 0.000000
vn 0.070707 0.070714 0.000000
vn 0.100000 0.000000 0.000000
vn 0.100000 0.000000 0.000000
vn 0.100000 0.000000 0.000000
vn 0.100000 0.000000 0.000000
vn 0.000000 0.000000 -0.100000
vn 0.000000 0.000000 -0.100000
vn 0.000000 0.000000 -0.100000
vn 0.000000 0.000000 -0.100000
vn 0.000000 0.000000 -0.100000
vn 0.000000 0.000000 -0.100000
vn 0.000000 0.000000 -0.100000
vn 0.000000 0.000000 -0.100000
vn 0.000000 0.000000 -0.100000
vn 0.000000 0.000000 -0.100000
vn 0.000000 0.000000 -0.100000
vn 0.000000 0.000000 -0.100000
vn 0.000000 0.000000 -0.100000
vn 0.000000 0.000000 -0.100000
vn 0.000000 0.000000 -0.100000
vn 0.000000 0.000000 -0.100000
vn 0.000000 0.000000 -0.100000
vn 0.000000 0.000000 -0.100000
vn -0.100000 0.000000 0.000000
vn -0.100000 0.000000 0.000000
vn -0.100000 0.000000 0.000000
vn -0.100000 0.000000 0.000000
vn 0.070707 -0.070714 0.000000
vn 0.070707 -0.070714 0.000000
vn 0.070707 -0.070714 0.000000
vn 0.070707 -0.070714 0.000000
vn 0.000000 -0.100000 0.000000
vn 0.000000 -0.100000 0.000000
vn 0.000000 -0.100000 0.000000
vn 0.000000 -0.100000 0.000000
vn 0.070714 -0.070707 0.000000
vn 0.070714 -0.070707 0.000000
vn 0.070714 -0.070707 0.000000
vn 0.070714 -0.070707 0.000000
vn 0.100000 0.000000 0.000000
vn 0.100000 0.000000 0.000000
vn 0.100000 0.000000 0.000000
vn 0.100000 0.000000 0.000000
vn 0.000000 -0.100000 0.000000
vn 0.000000 -0.100000 0.000000
vn 0.000000 -0.100000 0.000000
vn 0.000000 -0.100000 0.000000
vn -0.100000 0.000000 0.000000
vn -0.100000 0.000000 0.000000
vn -0.100000 0.000000 0.000000
vn -0.100000 0.000000 0.000000
vn -0.070714 -0.070707 0.000000
vn -0.070714 -0.070707 0.000000
vn -0.070714 -0.070707 0.000000
vn -0.070714 -0.070707 0.000000
vn 0.000000 -0.100000 0.000000
vn 0.000000 -0.100000 0.000000
vn 0.000000 -0.100000 0.000000
vn 0.000000 -0.100000 0.000000
vn -0.100000 0.000000 0.000000
vn -0.100000 0.000000 0.000000
vn -0.100000 0.000000 0.000000
vn -0.100000 0.000000 0.000000
vn 0.000000 -0.100000 0.000000
vn 0.000000 -0.100000 0.000000
vn 0.000000 -0.100000 0.000000
vn 0.000000 -0.100000 0.000000
vn 0.000000 0.000000 0.100000
vn 0.000000 0.000000 0.100000
vn 0.000000 0.000000 0.100000
vn 0.000000 0.000000 0.100000
vn 0.000000 0.000000 0.100000
vn 0.000000 0.000000 0.100000
vn 0.000000 0.000000 0.100000
vn 0.000000 0.000000 0.100000
vn 0.000000 0.000000 0.100000
vn 0.000000 0.000000 0.100000
vn 0.000000 0.000000 0.100000
vn 0.000000 0.000000 0.100000
vn 0.000000 0.000000 0.100000
vn 0.000000 0.000000 0.100000
vn 0.000000 0.000000 0.100000
vn 0.000000 0.000000 0.100000
vn 0.000000 0.000000 0.100000
vn 0.000000 0.000000 0.100000
usemtl Steel_-_Satin
f 2/1/1 3/2/2 1/3/3
f 1/3/3 3/2/2 4/4/4
f 5/5/5 6/6/6 2/7/7
f 2/7/7 6/6/6 3/8/8
f 1/9/9 4/10/10 7/11/11
f 7/11/11 4/10/10 8/12/12
f 10/13/13 11/14/14 9/15/15
f 9/15/15 11/14/14 12/16/16
f 13/17/17 14/18/18 10/19/19
f 10/19/19 14/18/18 11/20/20
f 15/21/21 16/22/22 13/23/23
f 13/23/23 16/22/22 14/24/24
f 17/25/25 18/26/26 15/27/27
f 15/27/27 18/26/26 16/28/28
f 27/29/29 19/30/30 26/31/31
f 26/31/31 19/30/30 8/32/32
f 26/31/31 8/32/32 11/33/33
f 11/33/33 8/32/32 12/34/34
f 12/34/34 8/32/32 6/35/35
f 6/35/35 8/32/32 4/36/36
f 6/35/35 4/36/36 3/37/37
f 26/31/31 11/33/33 25/38/38
f 25/38/38 11/33/33 14/39/39
f 25/38/38 14/39/39 22/40/40
f 22/40/40 14/39/39 16/41/41
f 22/40/40 16/41/41 18/42/42
f 20/43/43 21/44/44 18/42/42
f 18/42/42 21/44/44 22/40/40
f 22/40/40 23/45/45 25/38/38
f 25/38/38 23/45/45 24/46/46
f 9/47/47 12/48/48 5/49/49
f 5/49/49 12/48/48 6/50/50
f 28/51/51 20/52/52 17/53/53
f 17/53/53 20/52/52 18/54/54
f 7/55/55 8/56/56 29/57/57
f 29/57/57 8/56/56 19/58/58
f 29/59/59 19/60/60 30/61/61
f 30/61/61 19/60/60 27/62/62
f 30/63/63 27/64/64 31/65/65
f 31/65/65 27/64/64 26/66/66
f 31/67/67 26/68/68 32/69/69
f 32/69/69 26/68/68 25/70/70
f 32/71/71 25/72/72 33/73/73
f 33/73/73 25/72/72 24/74/74
f 33/75/75 24/76/76 34/77/77
f 34/77/77 24/76/76 23/78/78
f 34/79/79 23/80/80 35/81/81
f 35/81/81 23/80/80 22/82/82
f 35/83/83 22/84/84 36/85/85
f 36/85/85 22/84/84 21/86/86
f 36/87/87 21/88/88 28/89/89
f 28/89/89 21/88/88 20/90/90
f 29/91/91 31/92/92 7/93/93
f 7/93/93 31/92/92 10/94/94
f 7/93/93 10/94/94 9/95/95
f 29/91/91 30/96/96 31/92/92
f 31/92/92 32/97/97 10/94/94
f 10/94/94 32/97/97 13/98/98
f 13/98/98 32/97/97 35/99/99
f 13/98/98 35/99/99 15/100/100
f 15/100/100 35/99/99 17/101/101
f 17/101/101 35/99/99 36/102/102
f 17/101/101 36/102/102 28/103/103
f 33/104/104 34/105/105 32/97/97
f 32/97/97 34/105/105 35/99/99
f 9/95/95 5/106/106 7/93/93
f 7/93/93 5/106/106 1/107/107
f 1/107/107 5/106/106 2/108/108
# 36 vertices
# 108 texture params
# 108 normals
# 68 facets

# 1 groups
