# WaveFront *.obj file (generated by Autodesk ATF)

mtllib USB_LOCK.mtl

g Body2

v -5.103981 1.899305 5.000000
v -18.703981 1.899305 5.000000
v -18.703981 -8.100695 5.000000
v -5.103981 -8.100695 5.000000
v -5.103981 -8.100695 11.000000
v -5.103981 1.899305 11.000000
v -18.703981 1.899305 11.000000
v -18.703981 -8.100695 11.000000
v -23.703981 -8.100695 11.000000
v -23.703981 -8.100695 0.000000
v -0.103981 -8.100695 0.000000
v -0.103981 -8.100695 11.000000
v -23.703981 1.899305 11.000000
v -0.103981 1.899305 11.000000
v -23.703981 1.899305 0.000000
v -0.103981 1.899305 0.000000
vt 0.500000 0.680000 0.000000
vt -0.500000 0.680000 0.000000
vt 0.500000 -0.680000 0.000000
vt -0.500000 -0.680000 0.000000
vt -0.300000 -0.500000 0.000000
vt 0.300000 -0.500000 0.000000
vt -0.300000 0.500000 0.000000
vt 0.300000 0.500000 0.000000
vt 0.300000 0.500000 0.000000
vt -0.300000 0.500000 0.000000
vt 0.300000 -0.500000 0.000000
vt -0.300000 -0.500000 0.000000
vt 0.550000 -0.680000 0.000000
vt -0.050000 -0.680000 0.000000
vt 0.550000 -1.180000 0.000000
vt -0.550000 -1.180000 0.000000
vt -0.050000 0.680000 0.000000
vt -0.550000 1.180000 0.000000
vt 0.550000 1.180000 0.000000
vt 0.550000 0.680000 0.000000
vt -0.500000 0.680000 0.000000
vt 0.500000 0.680000 0.000000
vt -0.500000 1.180000 0.000000
vt 0.500000 1.180000 0.000000
vt 0.500000 -0.680000 0.000000
vt -0.500000 -0.680000 0.000000
vt 0.500000 -1.180000 0.000000
vt -0.500000 -1.180000 0.000000
vt -0.500000 -1.180000 0.000000
vt 0.500000 -1.180000 0.000000
vt -0.500000 1.180000 0.000000
vt 0.500000 1.180000 0.000000
vt -0.550000 -0.500000 0.000000
vt 0.550000 -0.500000 0.000000
vt -0.550000 0.500000 0.000000
vt 0.550000 0.500000 0.000000
vt 0.550000 0.500000 0.000000
vt -0.550000 0.500000 0.000000
vt 0.550000 -0.500000 0.000000
vt -0.550000 -0.500000 0.000000
vt -0.550000 -0.680000 0.000000
vt -0.550000 -1.180000 0.000000
vt 0.050000 -0.680000 0.000000
vt 0.550000 -1.180000 0.000000
vt 0.050000 0.680000 0.000000
vt 0.550000 1.180000 0.000000
vt -0.550000 1.180000 0.000000
vt -0.550000 0.680000 0.000000
vn 0.000000 0.000000 0.100000
vn 0.000000 0.000000 0.100000
vn 0.000000 0.000000 0.100000
vn 0.000000 0.000000 0.100000
vn -0.100000 0.000000 0.000000
vn -0.100000 0.000000 0.000000
vn -0.100000 0.000000 0.000000
vn -0.100000 0.000000 0.000000
vn 0.100000 0.000000 0.000000
vn 0.100000 0.000000 0.000000
vn 0.100000 0.000000 0.000000
vn 0.100000 0.000000 0.000000
vn 0.000000 -0.100000 0.000000
vn 0.000000 -0.100000 0.000000
vn 0.000000 -0.100000 0.000000
vn 0.000000 -0.100000 0.000000
vn 0.000000 -0.100000 0.000000
vn 0.000000 -0.100000 0.000000
vn 0.000000 -0.100000 0.000000
vn 0.000000 -0.100000 0.000000
vn 0.000000 0.000000 0.100000
vn 0.000000 0.000000 0.100000
vn 0.000000 0.000000 0.100000
vn 0.000000 0.000000 0.100000
vn 0.000000 0.000000 0.100000
vn 0.000000 0.000000 0.100000
vn 0.000000 0.000000 0.100000
vn 0.000000 0.000000 0.100000
vn 0.000000 0.000000 -0.100000
vn 0.000000 0.000000 -0.100000
vn 0.000000 0.000000 -0.100000
vn 0.000000 0.000000 -0.100000
vn 0.100000 0.000000 0.000000
vn 0.100000 0.000000 0.000000
vn 0.100000 0.000000 0.000000
vn 0.100000 0.000000 0.000000
vn -0.100000 0.000000 0.000000
vn -0.100000 0.000000 0.000000
vn -0.100000 0.000000 0.000000
vn -0.100000 0.000000 0.000000
vn -0.000000 0.100000 -0.000000
vn -0.000000 0.100000 -0.000000
vn -0.000000 0.100000 -0.000000
vn -0.000000 0.100000 -0.000000
vn -0.000000 0.100000 -0.000000
vn -0.000000 0.100000 -0.000000
vn -0.000000 0.100000 -0.000000
vn -0.000000 0.100000 -0.000000
usemtl Steel_-_Satin
f 2/1/1 3/2/2 1/3/3
f 1/3/3 3/2/2 4/4/4
f 4/5/5 5/6/6 1/7/7
f 1/7/7 5/6/6 6/8/8
f 2/9/9 7/10/10 3/11/11
f 3/11/11 7/10/10 8/12/12
f 5/13/13 4/14/14 12/15/15
f 12/15/15 4/14/14 11/16/16
f 11/16/16 4/14/14 3/17/17
f 11/16/16 3/17/17 10/18/18
f 10/18/18 3/17/17 9/19/19
f 9/19/19 3/17/17 8/20/20
f 8/21/21 7/22/22 9/23/23
f 9/23/23 7/22/22 13/24/24
f 6/25/25 5/26/26 14/27/27
f 14/27/27 5/26/26 12/28/28
f 16/29/29 11/30/30 15/31/31
f 15/31/31 11/30/30 10/32/32
f 12/33/33 11/34/34 14/35/35
f 14/35/35 11/34/34 16/36/36
f 13/37/37 15/38/38 9/39/39
f 9/39/39 15/38/38 10/40/40
f 6/41/41 14/42/42 1/43/43
f 1/43/43 14/42/42 16/44/44
f 1/43/43 16/44/44 2/45/45
f 2/45/45 16/44/44 15/46/46
f 2/45/45 15/46/46 13/47/47
f 13/47/47 7/48/48 2/45/45
# 16 vertices
# 48 texture params
# 48 normals
# 28 facets

# 1 groups
